<svg width="200" height="200" viewBox="0 0 200 200" fill="none" xmlns="http://www.w3.org/2000/svg">
<path opacity="0.2" d="M100 193.75C148.325 193.75 187.5 154.575 187.5 106.25C187.5 57.9251 148.325 18.75 100 18.75C51.6751 18.75 12.5 57.9251 12.5 106.25C12.5 154.575 51.6751 193.75 100 193.75Z" fill="#00100F"/>
<path d="M100 187.5C148.325 187.5 187.5 148.325 187.5 100C187.5 51.6751 148.325 12.5 100 12.5C51.6751 12.5 12.5 51.6751 12.5 100C12.5 148.325 51.6751 187.5 100 187.5Z" fill="#5294E2"/>
<g opacity="0.2">
<path opacity="0.2" d="M100 43.75C86.19 43.75 75 54.945 75 68.75C75 82.555 86.19 93.75 100 93.75C113.81 93.75 125 82.555 125 68.75C125 54.945 113.81 43.75 100 43.75Z" fill="black"/>
<path opacity="0.2" d="M100 106.25C56.2544 106.276 56.25 133.942 56.25 133.942V145.192C56.25 145.192 64.3269 162.5 100 162.5C135.673 162.5 143.75 145.192 143.75 145.192V133.942C143.75 133.942 143.75 106.233 100.009 106.25H100Z" fill="black"/>
</g>
<path d="M100 37.5C86.19 37.5 75 48.695 75 62.5C75 76.305 86.19 87.5 100 87.5C113.81 87.5 125 76.305 125 62.5C125 48.695 113.81 37.5 100 37.5Z" fill="white"/>
<path d="M100 100C56.2544 100.026 56.25 127.692 56.25 127.692V138.942C56.25 138.942 64.3269 156.25 100 156.25C135.673 156.25 143.75 138.942 143.75 138.942V127.692C143.75 127.692 143.75 99.9827 100.009 100H100Z" fill="white"/>
<path opacity="0.2" d="M100 12.5C76.7936 12.5 54.5376 21.7187 38.1282 38.1282C21.7187 54.5376 12.5 76.7936 12.5 100C12.5192 101.222 12.564 102.442 12.6343 103.662C13.3069 80.9303 22.8033 59.3535 39.1115 43.5033C55.4197 27.6531 77.2583 18.775 100 18.75C122.562 18.7649 144.247 27.4946 160.526 43.1166C176.806 58.7386 186.421 80.0452 187.366 102.588C187.423 101.726 187.468 100.863 187.5 100C187.5 76.7936 178.281 54.5376 161.872 38.1282C145.462 21.7187 123.206 12.5 100 12.5V12.5Z" fill="white"/>
</svg>
